<svg width="26" height="26" viewBox="0 0 26 26" fill="none" xmlns="http://www.w3.org/2000/svg">
<path d="M22.8226 0.314636L4.07257 0.314636C2.34913 0.314636 0.947571 1.7162 0.947571 3.43964V22.1896C0.947571 23.9131 2.34913 25.3146 4.07257 25.3146H22.8226C24.546 25.3146 25.9476 23.9131 25.9476 22.1896V3.43964C25.9476 1.7162 24.546 0.314636 22.8226 0.314636Z" fill="#1976D2"/>
<path d="M22.0413 12.8146H18.1351V9.68964C18.1351 8.82714 18.8351 8.90839 19.6976 8.90839H21.2601V5.00214H18.1351C15.546 5.00214 13.4476 7.10057 13.4476 9.68964V12.8146H10.3226V16.7209H13.4476V25.3146H18.1351V16.7209H20.4788L22.0413 12.8146Z" fill="#FAFAFA"/>
</svg>
