<svg width="26" height="26" viewBox="0 0 26 26" fill="none" xmlns="http://www.w3.org/2000/svg">
<path d="M18.1351 0.314636L8.7601 0.314636C4.44604 0.314636 0.947601 3.81307 0.947601 8.12714V17.5021C0.947601 21.8162 4.44604 25.3146 8.7601 25.3146H18.1351C22.4492 25.3146 25.9476 21.8162 25.9476 17.5021V8.12714C25.9476 3.81307 22.4492 0.314636 18.1351 0.314636ZM23.6038 17.5021C23.6038 20.5178 21.1507 22.9709 18.1351 22.9709H8.7601C5.74448 22.9709 3.29135 20.5178 3.29135 17.5021V8.12714C3.29135 5.11151 5.74448 2.65839 8.7601 2.65839H18.1351C21.1507 2.65839 23.6038 5.11151 23.6038 8.12714V17.5021Z" fill="url(#paint0_linear)"/>
<path d="M13.4476 6.56464C9.99604 6.56464 7.1976 9.36307 7.1976 12.8146C7.1976 16.2662 9.99604 19.0646 13.4476 19.0646C16.8992 19.0646 19.6976 16.2662 19.6976 12.8146C19.6976 9.36307 16.8992 6.56464 13.4476 6.56464ZM13.4476 16.7209C11.2945 16.7209 9.54135 14.9678 9.54135 12.8146C9.54135 10.6599 11.2945 8.90839 13.4476 8.90839C15.6007 8.90839 17.3539 10.6599 17.3539 12.8146C17.3539 14.9678 15.6007 16.7209 13.4476 16.7209Z" fill="url(#paint1_linear)"/>
<path d="M20.1664 6.92874C20.6263 6.92874 20.9992 6.55588 20.9992 6.09593C20.9992 5.63598 20.6263 5.26312 20.1664 5.26312C19.7065 5.26312 19.3336 5.63598 19.3336 6.09593C19.3336 6.55588 19.7065 6.92874 20.1664 6.92874Z" fill="url(#paint2_linear)"/>
<defs>
<linearGradient id="paint0_linear" x1="3.23612" y1="23.0263" x2="23.6591" y2="2.603" gradientUnits="userSpaceOnUse">
<stop stop-color="#FFC107"/>
<stop offset="0.507" stop-color="#F44336"/>
<stop offset="0.99" stop-color="#9C27B0"/>
</linearGradient>
<linearGradient id="paint1_linear" x1="9.0283" y1="17.2339" x2="17.8669" y2="8.39534" gradientUnits="userSpaceOnUse">
<stop stop-color="#FFC107"/>
<stop offset="0.507" stop-color="#F44336"/>
<stop offset="0.99" stop-color="#9C27B0"/>
</linearGradient>
<linearGradient id="paint2_linear" x1="19.5776" y1="6.68491" x2="20.7552" y2="5.5071" gradientUnits="userSpaceOnUse">
<stop stop-color="#FFC107"/>
<stop offset="0.507" stop-color="#F44336"/>
<stop offset="0.99" stop-color="#9C27B0"/>
</linearGradient>
</defs>
</svg>
