<svg width="36" height="21" viewBox="0 0 36 21" fill="none" xmlns="http://www.w3.org/2000/svg">
<path d="M18.0987 20.7304H20.1932C20.1932 20.7304 20.8264 20.6603 21.1484 20.3119C21.4464 19.992 21.4354 19.3917 21.4354 19.3917C21.4354 19.3917 21.3938 16.5808 22.6996 16.1667C23.9857 15.7592 25.6377 18.8834 27.3882 20.0862C28.7115 20.9955 29.7172 20.7961 29.7172 20.7961L34.3992 20.7304C34.3992 20.7304 36.8486 20.5792 35.6874 18.6534C35.5932 18.4956 35.0104 17.2293 32.2061 14.6264C29.2702 11.9009 29.6646 12.3435 33.2007 7.63081C35.3544 4.76069 36.2155 3.00794 35.946 2.25865C35.6896 1.5444 34.1056 1.73282 34.1056 1.73282L28.8386 1.76349C28.8386 1.76349 28.4486 1.71091 28.1572 1.884C27.8746 2.05489 27.6927 2.44926 27.6927 2.44926C27.6927 2.44926 26.858 4.67086 25.745 6.55944C23.3985 10.5447 22.4586 10.7551 22.0752 10.5075C21.1835 9.93128 21.407 8.18949 21.407 6.95381C21.407 3.0912 21.9919 1.48086 20.2655 1.06459C19.6915 0.926559 19.2708 0.83454 17.8051 0.819204C15.9253 0.799485 14.3325 0.825776 13.432 1.26615C12.8317 1.55974 12.3694 2.21483 12.652 2.25207C13.0004 2.29808 13.7891 2.46459 14.2076 3.03423C14.7487 3.7682 14.729 5.42016 14.729 5.42016C14.729 5.42016 15.0401 9.96634 14.0038 10.5316C13.2918 10.9194 12.3168 10.1285 10.2245 6.51124C9.15309 4.6599 8.34245 2.61139 8.34245 2.61139C8.34245 2.61139 8.18689 2.23016 7.90864 2.02641C7.57124 1.77883 7.098 1.69996 7.098 1.69996L2.08953 1.73063C2.08953 1.73063 1.33805 1.75254 1.06199 2.07899C0.816604 2.37038 1.04227 2.9707 1.04227 2.9707C1.04227 2.9707 4.96403 12.1441 9.40286 16.7692C13.4758 21.0086 18.0987 20.7304 18.0987 20.7304Z" fill="#1E88E5"/>
</svg>
